<?xml version="1.0" standalone="no"?>
<!DOCTYPE svg PUBLIC "-//W3C//DTD SVG 20010904//EN"
 "http://www.w3.org/TR/2001/REC-SVG-20010904/DTD/svg10.dtd">
<svg version="1.0" xmlns="http://www.w3.org/2000/svg"
 width="80.000000pt" height="80.000000pt" viewBox="0 0 80.000000 80.000000"
 preserveAspectRatio="xMidYMid meet">
<metadata>
Created by potrace 1.11, written by Peter Selinger 2001-2013
</metadata>
<g transform="translate(0.000000,80.000000) scale(0.100000,-0.100000)"
fill="#000000" stroke="none">
<path d="M230 733 c-44 -22 -70 -40 -71 -51 0 -9 -2 -33 -4 -52 -8 -83 -15
-163 -25 -274 -11 -129 -32 -193 -76 -231 l-25 -22 49 -21 c64 -28 117 -32
175 -15 47 14 49 13 78 -11 41 -35 97 -35 137 -1 28 23 31 24 80 10 29 -7 67
-11 84 -8 41 6 98 35 121 61 18 20 18 20 -2 27 -32 10 -62 69 -76 150 -2 11
-6 58 -9 105 -3 47 -8 103 -10 125 -3 22 -8 69 -11 104 -3 36 -6 65 -8 66 -1
1 -15 11 -32 22 -54 37 -127 54 -219 52 -74 -1 -94 -6 -156 -36z"/>
</g>
</svg>
