<svg xmlns="http://www.w3.org/2000/svg" viewBox="0 0 64 64" id="calendar"><g id="calendar_icons/system/calendar" stroke="none" stroke-width="1" fill-rule="evenodd"><path d="M51.2,2 L57.6,2 C61.1346224,2 64,4.5072054 64,7.6 L64,56.4 C64,59.4927946 61.1346224,62 57.6,62 L6.4,62 C2.8653776,62 4.328664e-16,59.4927946 0,56.4 L1.77635684e-15,7.6 C1.34349044e-15,4.5072054 2.8653776,2 6.4,2 L12.8,2 L12.8,9 C12.8,10.5463973 14.2326888,11.8 16,11.8 C17.7673112,11.8 19.2,10.5463973 19.2,9 L19.2,2 L44.8,2 L44.8,9 C44.8,10.5463973 46.2326888,11.8 48,11.8 C49.7673112,11.8 51.2,10.5463973 51.2,9 L51.2,2 Z M7.4,17.4 C6.84771525,17.4 6.4,17.8477153 6.4,18.4 L6.4,55.4 C6.4,55.9522847 6.84771525,56.4 7.4,56.4 L56.6,56.4 C57.1522847,56.4 57.6,55.9522847 57.6,55.4 L57.6,18.4 C57.6,17.8477153 57.1522847,17.4 56.6,17.4 L7.4,17.4 Z" id="calendar_Mask" fill-rule="nonzero"></path></g></svg>