<svg xmlns="http://www.w3.org/2000/svg" fill="none" stroke="none" viewBox="0 0 32 32" id="emias-logo"><path fill-rule="evenodd" clip-rule="evenodd" d="M2 0C0.895431 0 0 0.895431 0 2V30C0 31.1046 0.895431 32 2 32H30C31.1046 32 32 31.1046 32 30V2C32 0.895431 31.1046 0 30 0H2ZM4.2 3.2C3.64772 3.2 3.2 3.64772 3.2 4.2V27.8C3.2 28.3523 3.64772 28.8 4.2 28.8H27.8C28.3523 28.8 28.8 28.3523 28.8 27.8V4.2C28.8 3.64772 28.3523 3.2 27.8 3.2H4.2ZM7.34754 23.0596C7.34754 23.6118 7.79525 24.0596 8.34754 24.0596H23.4667V20.8357H10.7106V17.6279H20.2376V14.4069H10.7106V11.1643H23.4667V7.94044H8.34754C7.79525 7.94044 7.34754 8.38815 7.34754 8.94044V23.0596Z" fill="currentColor"></path></svg>