<svg fill="rgb(32, 106, 218)" xmlns="http://www.w3.org/2000/svg" xmlns:xlink="http://www.w3.org/1999/xlink" viewBox="0 0 30 30" id="user"><g id="user_icons/system/user" stroke="none" stroke-width="1"><path d="M15.1835938,15.8203125 C10.8219336,15.8203125 7.2734375,12.2718164 7.2734375,7.91015625 C7.2734375,3.54849609 10.8219336,0 15.1835938,0 C19.5452539,0 23.09375,3.54849609 23.09375,7.91015625 C23.09375,12.2718164 19.5452539,15.8203125 15.1835938,15.8203125 Z M27.4882813,30 L2.87890625,30 C2.39351563,30 2,29.6064844 2,29.1210938 C2,26.0644336 3.18681641,23.1761133 5.34183594,20.9879883 C7.50746094,18.789082 10.3784375,17.578125 13.4257813,17.578125 L16.9414062,17.578125 C19.9888086,17.578125 22.8597266,18.789082 25.0253516,20.9879883 C27.1803711,23.1761133 28.3671875,26.0644336 28.3671875,29.1210938 C28.3671875,29.6064844 27.9736719,30 27.4882813,30 Z" id="user_path-1"></path></g></svg>